Coordinates
version=1
nRows=14
nColumns=40
inDegrees=yes

Units are S.I. units (second, meters, Newtons, ...)
If the header above contains a line with 'inDegrees', this indicates whether rotational values are in degrees (yes) or radians (no).

endheader
time	pelvis_tilt	pelvis_list	pelvis_rotation	pelvis_tx	pelvis_ty	pelvis_tz	hip_flexion_r	hip_adduction_r	hip_rotation_r	knee_angle_r	knee_angle_r_beta	ankle_angle_r	subtalar_angle_r	mtp_angle_r	hip_flexion_l	hip_adduction_l	hip_rotation_l	knee_angle_l	knee_angle_l_beta	ankle_angle_l	subtalar_angle_l	mtp_angle_l	lumbar_extension	lumbar_bending	lumbar_rotation	arm_flex_r	arm_add_r	arm_rot_r	elbow_flex_r	pro_sup_r	wrist_flex_r	wrist_dev_r	arm_flex_l	arm_add_l	arm_rot_l	elbow_flex_l	pro_sup_l	wrist_flex_l	wrist_dev_l
      1.61500000	    -11.81387599	     -2.39187165	     -1.05022205	      0.14914160	      0.52267478	     -1.20085468	     81.22079179	    -47.70894099	      5.79737330	    108.80480479	      1.89900209	     32.07303222	     16.93473487	      0.00000000	     90.66525410	    -49.53090164	     14.59809091	    109.87947604	      1.91775864	     30.18918320	     27.75824377	      0.00000000	    -13.78154571	      1.85196785	     -3.43160437	     44.99992398	    -14.99999999	     44.99992398	     75.00017585	     45.00000026	      0.00000000	      0.00000000	     44.99992398	    -14.99999999	     44.99992398	     75.00017585	     45.00000026	      0.00000000	      0.00000000
      1.62000000	    -11.82973121	     -2.43227107	     -1.02867374	      0.14913355	      0.52102460	     -1.20078517	     81.46196348	    -47.77056005	      5.97134244	    109.05141608	      1.90330626	     32.17505674	     17.02698479	      0.00000000	     91.07522620	    -49.53477897	     14.96743866	    110.10991914	      1.92178063	     30.22366785	     27.84112123	      0.00000000	    -13.82298847	      1.88781905	     -3.46446492	     44.99992400	    -14.99999999	     44.99992400	     75.00017585	     45.00000026	      0.00000000	      0.00000000	     44.99992400	    -14.99999999	     44.99992400	     75.00017585	     45.00000026	      0.00000000	      0.00000000
      1.62500000	    -11.77673247	     -2.81647931	     -0.97514206	      0.14916275	      0.51955874	     -1.20106393	     81.09840508	    -47.81836182	      5.48588712	    109.22655889	      1.90636308	     32.28203331	     17.08456082	      0.00000000	     91.92630999	    -49.53171935	     15.96145213	    110.38015983	      1.92649722	     30.21565646	     28.02244084	      0.00000000	    -13.95871957	      2.34439054	     -3.44565315	     44.99992403	    -14.99999999	     44.99992403	     75.00017585	     45.00000026	      0.00000000	      0.00000000	     44.99992403	    -14.99999999	     44.99992403	     75.00017585	     45.00000026	      0.00000000	      0.00000000
      1.63000000	    -11.78119117	     -2.90174158	     -0.95508862	      0.14913858	      0.51794939	     -1.20100593	     81.25862680	    -47.86513980	      5.57380499	    109.47125990	      1.91063392	     32.42073055	     17.13292731	      0.00000000	     92.39347086	    -49.53194124	     16.41904173	    110.61187712	      1.93054145	     30.22361678	     28.12967154	      0.00000000	    -14.03035535	      2.41975834	     -3.47882666	     44.99992405	    -14.99999999	     44.99992405	     75.00017585	     45.00000026	      0.00000000	      0.00000000	     44.99992405	    -14.99999999	     44.99992405	     75.00017585	     45.00000026	      0.00000000	      0.00000000
      1.63500000	    -11.63446154	     -2.62950653	     -0.92759379	      0.14909205	      0.51689420	     -1.20066690	     81.70363854	    -48.00151317	      6.24165861	    109.72284315	      1.91502488	     32.57817764	     17.40354585	      0.00000000	     92.03972635	    -49.54477838	     16.08991017	    110.72635367	      1.93253944	     30.34236910	     28.10572085	      0.00000000	    -14.28157053	      2.13688696	     -3.49393200	     44.99992407	    -14.99999999	     44.99992407	     75.00017585	     45.00000026	      0.00000000	      0.00000000	     44.99992407	    -14.99999999	     44.99992407	     75.00017585	     45.00000026	      0.00000000	      0.00000000
      1.64000000	    -11.84314117	     -2.79414506	     -0.94972738	      0.14903736	      0.51472367	     -1.20060233	     82.06258557	    -47.95603079	      6.26577796	    109.98943858	      1.91967785	     32.55578395	     17.23426423	      0.00000000	     92.94119502	    -49.54532431	     16.81096084	    111.01456300	      1.93756964	     30.33011696	     28.28378280	      0.00000000	    -14.08877068	      2.24095472	     -3.56119593	     44.99992409	    -14.99999999	     44.99992409	     75.00017585	     45.00000026	      0.00000000	      0.00000000	     44.99992409	    -14.99999999	     44.99992409	     75.00017585	     45.00000026	      0.00000000	      0.00000000
      1.64500000	    -11.80871611	     -2.67311406	     -0.92867687	      0.14901315	      0.51330573	     -1.20035529	     82.45714118	    -48.05218134	      6.70810841	    110.25262516	      1.92427132	     32.72291236	     17.46279298	      0.00000000	     93.01687515	    -49.54358620	     16.84165011	    111.19798769	      1.94077101	     30.37030255	     28.20942896	      0.00000000	    -14.20454906	      2.10601862	     -3.57031914	     44.99992411	    -14.99999999	     44.99992411	     75.00017585	     45.00000026	      0.00000000	      0.00000000	     44.99992411	    -14.99999999	     44.99992411	     75.00017585	     45.00000026	      0.00000000	      0.00000000
      1.65000000	    -11.73123493	     -2.62844727	     -0.92391711	      0.14897443	      0.51196645	     -1.20017047	     82.69179288	    -48.10769903	      7.01862049	    110.48088175	      1.92825515	     32.83160259	     17.63957019	      0.00000000	     93.14573229	    -49.55554979	     17.03142133	    111.37946050	      1.94393830	     30.42573262	     28.32980463	      0.00000000	    -14.37128437	      2.04010865	     -3.56749135	     44.99992412	    -14.99999999	     44.99992412	     75.00017585	     45.00000026	      0.00000000	      0.00000000	     44.99992412	    -14.99999999	     44.99992412	     75.00017585	     45.00000026	      0.00000000	      0.00000000
      1.65500000	    -11.78337950	     -2.69802483	     -0.92441382	      0.14895655	      0.51037380	     -1.20010500	     82.91695053	    -48.13313876	      7.12255826	    110.69980964	      1.93207616	     32.89678132	     17.71276618	      0.00000000	     93.62750626	    -49.55422322	     17.44166480	    111.61336483	      1.94802071	     30.44067286	     28.38799699	      0.00000000	    -14.36358869	      2.10151069	     -3.57553175	     44.99992413	    -14.99999999	     44.99992413	     75.00017585	     45.00000026	      0.00000000	      0.00000000	     44.99992413	    -14.99999999	     44.99992413	     75.00017585	     45.00000026	      0.00000000	      0.00000000
      1.66000000	    -11.78959002	     -3.26480979	     -0.91918011	      0.14897551	      0.50875140	     -1.20042732	     82.39014362	    -48.09136276	      6.31880322	    110.87145921	      1.93507201	     32.96875752	     17.49895267	      0.00000000	     94.85803013	    -49.54024213	     18.84629300	    111.90549772	      1.95311939	     30.42527089	     28.64239419	      0.00000000	    -14.44384824	      2.73434451	     -3.53702125	     44.99992415	    -14.99999999	     44.99992415	     75.00017585	     45.00000026	      0.00000000	      0.00000000	     44.99992415	    -14.99999999	     44.99992415	     75.00017585	     45.00000026	      0.00000000	      0.00000000
      1.66500000	    -11.85416784	     -3.07548048	     -0.95103611	      0.14888530	      0.50711658	     -1.20006607	     83.04932015	    -48.10523804	      6.93976993	    111.14228681	      1.93979884	     32.99813327	     17.59187536	      0.00000000	     94.93962175	    -49.54844563	     18.79228714	    112.08888591	      1.95632011	     30.54306375	     28.61273366	      0.00000000	    -14.42328369	      2.45749873	     -3.60573464	     44.99992416	    -14.99999999	     44.99992416	     75.00017585	     45.00000026	      0.00000000	      0.00000000	     44.99992416	    -14.99999999	     44.99992416	     75.00017585	     45.00000026	      0.00000000	      0.00000000
      1.67000000	    -11.86722856	     -3.09776600	     -0.96212502	      0.14887270	      0.50557116	     -1.19991066	     83.31441638	    -48.13012829	      7.13241937	    111.38364207	      1.94401129	     33.04343401	     17.58386911	      0.00000000	     95.30465232	    -49.54610697	     19.14432061	    112.29912830	      1.95998954	     30.58072308	     28.72796641	      0.00000000	    -14.47563725	      2.46284483	     -3.59662762	     44.99992417	    -14.99999999	     44.99992417	     75.00017585	     45.00000026	      0.00000000	      0.00000000	     44.99992417	    -14.99999999	     44.99992417	     75.00017585	     45.00000026	      0.00000000	      0.00000000
      1.67500000	    -11.79751558	     -3.42900776	     -0.96366936	      0.14891641	      0.50425877	     -1.20004964	     82.98593982	    -48.13064741	      6.72621453	    111.55182203	      1.94694658	     33.20433401	     17.68124525	      0.00000000	     96.01753299	    -49.53813184	     20.03504367	    112.53763672	      1.96415229	     30.58623632	     28.82516672	      0.00000000	    -14.63578598	      2.84248745	     -3.52289610	     44.99992418	    -14.99999999	     44.99992418	     75.00017585	     45.00000026	      0.00000000	      0.00000000	     44.99992418	    -14.99999999	     44.99992418	     75.00017585	     45.00000026	      0.00000000	      0.00000000
      1.68000000	    -11.81715536	     -3.27252377	     -0.99046398	      0.14885999	      0.50273786	     -1.19971220	     83.52808472	    -48.15612967	      7.26263587	    111.81497700	      1.95153950	     33.26766390	     17.77915119	      0.00000000	     96.08793818	    -49.54648617	     20.03211249	    112.71659435	      1.96727569	     30.66959051	     28.81379403	      0.00000000	    -14.66887162	      2.61334120	     -3.57267671	     44.99992420	    -14.99999999	     44.99992420	     75.00017585	     45.00000026	      0.00000000	      0.00000000	     44.99992420	    -14.99999999	     44.99992420	     75.00017585	     45.00000026	      0.00000000	      0.00000000
